<?xml version="1.0" encoding="utf-8"?>
<svg version="1.1" xmlns:xlink="http://www.w3.org/1999/xlink" width="159px" height="236px" xmlns="http://www.w3.org/2000/svg">
  <defs>
    <mask fill="white" id="clip15">
      <path d="M 0 236  L 0 0  L 154 0  C 156.775 0  159 2.225  159 5  L 159 231  C 159 233.775  156.775 236  154 236  " fill-rule="evenodd" />
    </mask>
  </defs>
  <g>
    <path d="M 0 0  L 159 0  L 159 236  L 0 236  L 0 0  " fill-rule="nonzero" fill="#cccccc" stroke="none" mask="url(#clip15)" />
    <path d="M 11 11  L 148 11  L 148 225  L 11 225  L 11 11  " fill-rule="nonzero" fill="#ffffff" stroke="none" mask="url(#clip15)" />
    <path d="M 94.605 59.25  C 87.927 59.25  82.68 54.003  82.68 47.325  C 82.68 40.647  87.927 35.4  94.605 35.4  C 101.283 35.4  106.53 40.647  106.53 47.325  C 106.53 54.003  101.283 59.25  94.605 59.25  " fill-rule="nonzero" fill="#cccccc" stroke="none" mask="url(#clip15)" />
    <path d="M 15 221  L 15 107.7  L 47.25 56.2  L 92.4 97.4  L 118.2 87.1  L 144 97.4  L 144 221  L 15 221  " fill-rule="nonzero" fill="#169bd5" stroke="none" mask="url(#clip15)" />
  </g>
</svg>