<?xml version="1.0" encoding="utf-8"?>
<svg version="1.1" xmlns:xlink="http://www.w3.org/1999/xlink" width="315px" height="170px" xmlns="http://www.w3.org/2000/svg">
  <g>
    <path d="M 0 0  L 315 0  L 315 170  L 0 170  L 0 0  " fill-rule="nonzero" fill="#cccccc" stroke="none" />
    <path d="M 12 12  L 303 12  L 303 158  L 12 158  L 12 12  " fill-rule="nonzero" fill="#ffffff" stroke="none" />
    <path d="M 176.55 51  C 169.41 51  163.8 45.39  163.8 38.25  C 163.8 31.11  169.41 25.5  176.55 25.5  C 183.69 25.5  189.3 31.11  189.3 38.25  C 189.3 45.39  183.69 51  176.55 51  " fill-rule="nonzero" fill="#cccccc" stroke="none" />
    <path d="M 17 154  L 17 78.65  L 87.5 44.4  L 186.2 109.638095238095  L 242.6 64.95  L 299 109.638095238095  L 299 154  L 17 154  " fill-rule="nonzero" fill="#169bd5" stroke="none" />
  </g>
</svg>